<svg id="Layer_1" data-name="Layer 1" xmlns="http://www.w3.org/2000/svg" viewBox="0 0 547.1 494.29"><defs><style>.cls-1{fill:#68a2b9;}</style></defs><title>furever friends</title><path class="cls-1" d="M446.51,391.6c-19.64,34-13.71,74.33,13.22,89.87a46.74,46.74,0,0,0,23.6,6.23A58.19,58.19,0,0,0,505.8,483c15.45-6.45,29.08-18.88,38.37-35s13.24-34.11,11.11-50.72C553,379.77,544.39,365.87,531,358.11,504,342.57,466.15,357.58,446.51,391.6Zm60.68-22.19a29.71,29.71,0,0,1,15,3.9c8.58,5,14.16,14.26,15.69,26.19,1.65,12.81-1.52,26.92-8.9,39.71S511,461.79,499,466.77c-11.09,4.64-21.94,4.46-30.53-.5-18.54-10.7-21.59-40.27-6.79-65.9C472.85,381.07,491,369.41,507.19,369.41Z" transform="translate(-27.67 -184.54)"/><path class="cls-1" d="M382.09,375.41a58.83,58.83,0,0,0,14.3,1.77c15.33,0,30.81-6,44.75-17.41,17.55-14.42,30.63-36,36.84-60.81s4.87-50-3.8-71c-9-21.9-24.91-36.7-44.69-41.65s-40.74.6-59.05,15.64c-17.54,14.42-30.63,36-36.84,60.81s-4.87,50,3.8,71C346.44,355.66,362.31,370.45,382.09,375.41ZM350.62,267c5.31-21.17,16.3-39.47,31-51.52,10.71-8.81,22.38-13.4,33.7-13.4a41.18,41.18,0,0,1,9.94,1.22c14.24,3.57,25.86,14.7,32.73,31.33,7.24,17.54,8.31,38.86,3,60s-16.3,39.47-31,51.52c-13.9,11.42-29.38,15.74-43.64,12.18s-25.87-14.7-32.74-31.33C346.38,309.52,345.31,288.2,350.62,267Z" transform="translate(-27.67 -184.54)"/><path class="cls-1" d="M194.63,359.77c13.94,11.45,29.43,17.41,44.75,17.41a58.77,58.77,0,0,0,14.3-1.77c19.78-5,35.65-19.75,44.7-41.65,8.66-21,10-46.2,3.8-71s-19.3-46.39-36.84-60.81c-18.31-15-39.29-20.6-59-15.64s-35.65,19.75-44.7,41.65c-8.66,21-10,46.2-3.8,71S177.09,345.35,194.63,359.77ZM177.82,234.66c6.86-16.63,18.49-27.76,32.73-31.33a41.11,41.11,0,0,1,9.94-1.22c11.31,0,23,4.59,33.7,13.4,14.66,12.05,25.66,30.35,31,51.52s4.24,42.49-3,60c-6.86,16.63-18.49,27.76-32.73,31.33s-29.74-.76-43.64-12.18c-14.66-12-25.66-30.35-31-51.52S170.57,252.2,177.82,234.66Z" transform="translate(-27.67 -184.54)"/><path class="cls-1" d="M426.9,479.07a113.41,113.41,0,0,0-40.31-75.69c-51-42-125.22-28.16-158,28.82-12.79,22.22-19.08,47.6-22.78,73-1,6.57-.19,15.52,6.33,16.8,7.21,1.43,10.94-8.21,11.91-15.5,4.48-33.68,14.11-69.21,40-91.16,30.9-26.14,80.71-24.53,111.76,1.44,21.87,18.29,33.63,46.77,34,75,.47,34.35-17.74,61.91-34.2,90.62q.24-8.9.93-17.61T378,547.13c.16-1.89.31-3.81.43-5.75s.19-3.85.19-5.74a34.42,34.42,0,0,0-.25-4,12.88,12.88,0,0,0-1-3.71,6.57,6.57,0,0,0-2.23-2.72,6.67,6.67,0,0,0-3.95-1.05,11.78,11.78,0,0,0-3.83.68,22.28,22.28,0,0,0-3.83,1.73,40.44,40.44,0,0,0-3.59,2.29c-1.16.82-2.22,1.61-3.21,2.35a17.27,17.27,0,0,0-3.65,3.77,8.29,8.29,0,0,0-1.42,4.88q0,4.95-.25,12.55c-.16,5-.24,10.26-.25,15.83a1,1,0,0,1-.18,0,11.21,11.21,0,0,0-3.34,2.29,31.45,31.45,0,0,0-2.72,3.15q-1.29,1.72-2.9,3.71a43.72,43.72,0,0,1-14.9,14.83,47.88,47.88,0,0,1-17.37,6.43q-8.52,1.23-10.13-4.76t-.31-10.07c.87-2.72,1.5-4.29,1.92-4.7A111.17,111.17,0,0,0,319.94,575a35.53,35.53,0,0,0,15.27-9.77q6.56-7,7.3-18t-7.42-16.07q-8.16-5.07-21.57-3.47t-24.6,13.17Q277.73,552.46,275.57,564c-.69,3.68-1.21,6.86-1.57,9.57q-25.12,29.79-26.56,27.76t.74-8.72c1.49-4.36,2.91-8.16,4.27-11.37s2.88-6.65,4.57-10.32,3.44-7.42,5.26-11.25,3.54-7.56,5.19-11.19c.32-.66.88-1.83,1.67-3.52s1.64-3.65,2.59-5.87,2-4.55,3-7,2-4.76,2.9-7,1.59-4.2,2.17-5.93a13.65,13.65,0,0,0,.86-3.71c0-1.4-.22-2.31-.68-2.72a14.51,14.51,0,0,0-2.41-1.61q-2.84-1.73-5.19-3.21a10.91,10.91,0,0,0-5.93-1.49,25.39,25.39,0,0,0-7.29.87,7.85,7.85,0,0,0-4.58,4.08,34.88,34.88,0,0,1-7,9.27,37.7,37.7,0,0,1-8.22,5.75,40.66,40.66,0,0,1-8.47,3.21c-2.81.7-5.44,1.26-7.91,1.67l-6.68,1.11a11.35,11.35,0,0,0-4.57,1.61l-.25.12a9.63,9.63,0,0,0-1.92,2,28.5,28.5,0,0,0-3.4,6.06,7.28,7.28,0,0,0-.62,2.53,36.39,36.39,0,0,0,.38,5.2,36.89,36.89,0,0,1,.37,5.06c0,3-2.72,9.74-8.07,20.11l-1.58,2q-2.59,3.27-5.37,6.68T186,590c-1.66,1.89-3.14,3.46-4.46,4.69s-2.35,1.86-3.09,1.86-1-.51-1.11-1.55a17.32,17.32,0,0,1,.87-5.13q3-9.89,6.24-19.65t6.86-19.41c.5-1.48,1.15-3.28,2-5.38s1.62-4.28,2.41-6.55,1.44-4.45,2-6.55a22.28,22.28,0,0,0,.8-5.25,5.88,5.88,0,0,0-2.1-4.89,8.13,8.13,0,0,0-5.19-1.67,19.78,19.78,0,0,0-4.21.56c-1.65.37-3.33.85-5.06,1.42a40.21,40.21,0,0,0-4.89,2,13.08,13.08,0,0,0-3.52,2.35,7.48,7.48,0,0,0-1.79,2.41,38.62,38.62,0,0,0-1.67,4.82c-.17.7-.33,1.38-.5,2l-2.47,9.58q-1.49,5.74-3.46,12.24t-4.33,13a108.09,108.09,0,0,1-4.94,11.68,40.67,40.67,0,0,1-5.44,8.47q-2.85,3.27-5.93,3.27a5.29,5.29,0,0,1-2.6-.61c-1.24-.66-1.79-2.31-1.67-5a45.25,45.25,0,0,1,1.67-9.46q1.49-5.49,3.77-11.8t4.39-11.93q2.1-5.62,3.64-9.83a21.79,21.79,0,0,0,1.55-5.44,7.8,7.8,0,0,0-2.6-6.36,9.89,9.89,0,0,0-6.55-2.17,17.63,17.63,0,0,0-7.85,1.73,30.62,30.62,0,0,0-6.73,4.58,13.79,13.79,0,0,0-3.22,4.45,35,35,0,0,0-1.85,5.19c0,.08-.37,1.2-1.11,3.34s-3,9.74-6.93,22.81-4.08,23.71-.62,32,9.17,12.09,17.12,11.56,15-4.55,21.21-12.06q-1.49,13.49,8.65,16.45a20.3,20.3,0,0,0,11.87-3.71,42.73,42.73,0,0,0,5.56-4.64l.46-.45a8,8,0,0,0,1.45,1,13.14,13.14,0,0,0,2.66.93,11.17,11.17,0,0,0,2.35.3A12,12,0,0,0,196,611.6a65.77,65.77,0,0,0,8.77-11.13,169.14,169.14,0,0,0,10.39-18.54,109.61,109.61,0,0,0,7.54-18.85,56.28,56.28,0,0,1,4.33-11.87c2.14-.57,4.3-1.07,6.48-1.48l6.62-1.24q-3.35,5.07-9.4,21.82t-7.11,29.92q-1,13.15,1.86,20.45t8.65,7.79c3.83.33,8-.68,12.42-3s9.73-7.23,15.83-14.64c4.86-5.92,9.21-11.13,13.08-15.68A32,32,0,0,0,281.13,606a26.64,26.64,0,0,0,9.83,7.54,32.8,32.8,0,0,0,13.84,2.72,50.06,50.06,0,0,0,18.92-3.4,57,57,0,0,0,14.89-8.71,60.68,60.68,0,0,0,11.12-11.81c.7-1,1.37-1.95,2-2.92a107.77,107.77,0,0,0,1.39,11.7,37.45,37.45,0,0,0,3.59,11.19c1.56,2.88,3.62,4.37,6.18,4.45,0,.08.08.12.25.12,1.64,0,3.44-.08,5.37-.25a35.44,35.44,0,0,0,5.81-1,25.19,25.19,0,0,0,5.38-2,12.22,12.22,0,0,0,4.08-3.4,16.5,16.5,0,0,0,1.3-2.11c13.12-24.41,27.57-49.66,35.75-76.39C426,514.79,428.66,497.31,426.9,479.07Zm-118,78.75a58.75,58.75,0,0,1,4.95-5.31q2.66-2.53,5.5-4.82a65.44,65.44,0,0,1,5.31-3.9,19.55,19.55,0,0,1-1.11,8.66,19.16,19.16,0,0,1-3.89,6.36,17.38,17.38,0,0,1-5.44,3.9,13.74,13.74,0,0,1-5.5,1.36,7,7,0,0,1-4-1Q306.66,560.6,308.94,557.82Z" transform="translate(-27.67 -184.54)"/><path class="cls-1" d="M572.55,569.76a7.82,7.82,0,0,0-4.94-1.74,8.78,8.78,0,0,0-3.28.62,6.65,6.65,0,0,0-2.66,2q-27.57,32.88-29,30.72t.74-8.72c1.49-4.36,2.91-8.16,4.27-11.37s2.88-6.65,4.57-10.32,3.44-7.42,5.26-11.25,3.54-7.56,5.19-11.19c.33-.66.88-1.83,1.67-3.52s1.65-3.65,2.59-5.87,2-4.55,3-7,2-4.76,2.91-7,1.58-4.2,2.16-5.93a13.78,13.78,0,0,0,.87-3.71c0-1.4-.23-2.31-.68-2.72a15.46,15.46,0,0,0-2.41-1.61q-2.85-1.73-5.2-3.21a10.89,10.89,0,0,0-5.93-1.49,25.39,25.39,0,0,0-7.29.87,7.85,7.85,0,0,0-4.58,4.08,34.68,34.68,0,0,1-7,9.27,37.7,37.7,0,0,1-8.22,5.75,40.66,40.66,0,0,1-8.47,3.21q-4.2,1.05-7.91,1.67l-6.68,1.11A11.4,11.4,0,0,0,496.9,534l-.25.12a9.89,9.89,0,0,0-1.91,2,25.92,25.92,0,0,0-1.92,3,25.54,25.54,0,0,0-1.48,3.09,7.06,7.06,0,0,0-.62,2.53,36.37,36.37,0,0,0,.37,5.2,35.38,35.38,0,0,1,.37,5.06c0,3-2.69,9.67-8,20-.61.79-1.2,1.56-1.9,2.43a43.72,43.72,0,0,1-14.9,14.83,47.9,47.9,0,0,1-17.36,6.43q-8.54,1.23-10.14-4.76t-.31-10.07c.87-2.72,1.5-4.29,1.92-4.7A111.17,111.17,0,0,0,459.5,575a35.53,35.53,0,0,0,15.27-9.77q6.56-7,7.3-18t-7.42-16.07q-8.16-5.07-21.57-3.47t-24.6,13.17Q417.29,552.46,415.13,564T413,580.76a48.74,48.74,0,0,0,1.92,13.9A32.26,32.26,0,0,0,420.69,606a26.64,26.64,0,0,0,9.83,7.54,32.8,32.8,0,0,0,13.84,2.72,50.06,50.06,0,0,0,18.92-3.4c.66-.26,1.29-.57,1.93-.86a3.36,3.36,0,0,0,.35.49,7.86,7.86,0,0,0,2.23,1.55,12.93,12.93,0,0,0,2.66.93,11.08,11.08,0,0,0,2.34.3,12,12,0,0,0,8.41-3.64A65.74,65.74,0,0,0,490,600.47a170.91,170.91,0,0,0,10.38-18.54,108.8,108.8,0,0,0,7.54-18.85,56.85,56.85,0,0,1,4.33-11.87c2.14-.57,4.3-1.07,6.49-1.48l6.61-1.24q-3.33,5.07-9.39,21.82t-7.11,29.92q-1.05,13.15,1.85,20.45t8.65,7.79q5.76.49,12.43-3t15.82-14.64q9.15-11.13,15.95-19a116.23,116.23,0,0,0,9-11.44c1.49-2.34,2.23-4.18,2.23-5.5A6,6,0,0,0,572.55,569.76Zm-124-11.94a60.22,60.22,0,0,1,4.95-5.31q2.66-2.53,5.5-4.82a65.44,65.44,0,0,1,5.31-3.9,19.55,19.55,0,0,1-1.11,8.66,19.16,19.16,0,0,1-3.89,6.36,17.27,17.27,0,0,1-5.44,3.9,13.7,13.7,0,0,1-5.5,1.36,7,7,0,0,1-4-1Q446.22,560.6,448.5,557.82Z" transform="translate(-27.67 -184.54)"/><path class="cls-1" d="M118.21,536.65a8.74,8.74,0,0,0,3.1-2.85,8.35,8.35,0,0,0,1.2-4.71,4.29,4.29,0,0,0-1-2.9,6.72,6.72,0,0,0-2.4-1.75,10.38,10.38,0,0,0-3.11-.85,24,24,0,0,0-3-.2q-6.7,0-13.36.25t-13.37.25a21.06,21.06,0,0,1,.6-3q.6-2.5,1.55-6t2-7.41l1.95-7.26c.6-2.24,1.12-4.1,1.55-5.61a10.82,10.82,0,0,1,.75-2.25,14.12,14.12,0,0,1,4.36-.9c17.56-.79,35.77.07,53.12-3.21C199.51,479.31,212,431,189.27,391.6c-19.64-34-57.52-49-84.45-33.49-13.44,7.76-22.07,21.66-24.32,39.15-1.79,13.92.74,28.81,7.07,42.75a7.64,7.64,0,0,0,8.49,4.31l1.94-.41a7.53,7.53,0,0,0,5.39-10.44c-7.2-15.61-5.48-34-5.48-34,1.53-11.93,7.1-21.23,15.69-26.19a29.7,29.7,0,0,1,15-3.9c16.2,0,34.34,11.66,45.49,31,11.51,19.94,16.61,57.11-10.25,67.14-9.46,3.53-19.87,3.14-30,2.88q-41-1.06-82,1.68c-8.25.55-17.65,1.86-22.27,8.72-2.43,3.61-2.8,9,.34,12,2.64,2.54,6.72,2.64,10.38,2.54,9.33-.24,19-1.79,28.25-1.44a62,62,0,0,1-1.21,6.86q-.9,4.11-1.95,8.46T58.84,532.9Q53.34,552.22,50.08,561t-6.21,17.62q-3,8.8-5,17.77a81,81,0,0,0-2,18.17,8.24,8.24,0,0,0,1.55,5.15c1,1.37,2.69,2.06,5,2.06a14,14,0,0,0,4.05-.7,23.26,23.26,0,0,0,4.4-1.91,25.54,25.54,0,0,0,4-2.7,11.35,11.35,0,0,0,2.7-3.1l20-65.18a35.06,35.06,0,0,0,.85-3.5,13.5,13.5,0,0,1,1.15-3.4q7-1.11,14.27-1.61t14.37-1a33,33,0,0,0,4.81-.55A14.29,14.29,0,0,0,118.21,536.65Z" transform="translate(-27.67 -184.54)"/><path class="cls-1" d="M117.35,672.28h5.17V645.54h-5.17v-5.79h31.09v11.77h-6.73V645.6H129.82v11.27h13.59v5.91H129.82v9.5h5.47v5.79H117.35Z" transform="translate(-27.67 -184.54)"/><path class="cls-1" d="M171,672.28h5.16V645.54H171v-5.79h18.5c11.33,0,15.61,6.23,15.61,12.08,0,4.47-2.52,8.56-7.74,10.26l5.79,10.19h4.72v5.79h-9.69l-7.87-14h-6.86v8.24h5.16v5.79H171Zm18.63-13.9c6.1,0,8.11-3.09,8.11-6.42s-2.07-6.42-8.11-6.42h-6.17v12.84Z" transform="translate(-27.67 -184.54)"/><path class="cls-1" d="M230.72,672.28h5.17V645.54h-5.17v-5.79h17.63v5.79h-5.16v26.74h5.16v5.79H230.72Z" transform="translate(-27.67 -184.54)"/><path class="cls-1" d="M272.25,672.28h5.16V645.54h-5.16v-5.79h31.59V651h-6.73v-5.47h-12.4v10.38h14.41v5.79H284.71v10.57h12.58v-5.72h6.8v11.51H272.25Z" transform="translate(-27.67 -184.54)"/><path class="cls-1" d="M328.11,672.28h5.17V645.54h-5.17v-5.79h12.66l18.37,26.49v-20.7H354v-5.79h17.25v5.79h-5.17v32.53h-6.48L340.2,650.38v21.9h5.16v5.79H328.11Z" transform="translate(-27.67 -184.54)"/><path class="cls-1" d="M394.43,672.28h5.16V645.54h-5.16v-5.79h18.18c13.92,0,20.59,7.8,20.59,19.19s-6.67,19.13-20.59,19.13H394.43Zm18.18,0c9.07,0,13.1-5,13.1-13.34s-4-13.4-13.1-13.4h-5.72v26.74Z" transform="translate(-27.67 -184.54)"/><path class="cls-1" d="M457,676.75v-9.56h6.55v5a28.58,28.58,0,0,0,6.6.82c4.1,0,7.93-1,7.93-4.78,0-8.75-20.57-4-20.57-18.13,0-8,6.79-11.14,14.34-11.14A40.73,40.73,0,0,1,484,641.07v9.37h-6.67v-5.15a36.51,36.51,0,0,0-5.35-.51c-3.71,0-7.49,1.07-7.49,4.6,0,8.18,20.58,3.77,20.58,18.37,0,8.37-6.85,11.08-14.53,11.08A54.87,54.87,0,0,1,457,676.75Z" transform="translate(-27.67 -184.54)"/></svg>